<?xml version="1.0" standalone="no"?>
<!DOCTYPE svg PUBLIC "-//W3C//DTD SVG 20010904//EN"
 "http://www.w3.org/TR/2001/REC-SVG-20010904/DTD/svg10.dtd">
<svg version="1.0" xmlns="http://www.w3.org/2000/svg"
 width="700.000000pt" height="700.000000pt" viewBox="0 0 700.000000 700.000000"
 preserveAspectRatio="xMidYMid meet">
<metadata>
Created by potrace 1.11, written by Peter Selinger 2001-2013
</metadata>
<g transform="translate(0.000000,700.000000) scale(0.100000,-0.100000)"
fill="#000000" stroke="none">
<path d="M1233 6166 c-48 -41 -98 -85 -110 -98 l-23 -24 100 -132 c55 -73 100
-136 100 -140 0 -4 -27 -24 -60 -46 -33 -21 -63 -42 -66 -47 -6 -11 154 -249
167 -249 6 0 37 19 69 42 33 23 61 40 63 37 10 -12 99 -174 130 -236 l36 -71
-65 -28 c-36 -15 -67 -31 -70 -35 -4 -7 101 -253 116 -272 4 -4 37 6 74 23 38
17 69 30 71 28 7 -7 93 -255 100 -285 6 -31 6 -32 -46 -47 -29 -9 -58 -16 -65
-16 -7 0 -15 -4 -19 -9 -6 -10 58 -278 69 -289 4 -3 36 2 73 12 36 9 69 14 73
9 7 -8 33 -136 45 -223 3 -25 8 -57 11 -72 5 -26 3 -28 -29 -28 -19 0 -54 -3
-78 -6 l-45 -6 13 -151 c7 -82 14 -151 15 -152 2 -1 36 1 76 4 40 4 75 4 78 2
2 -2 4 -75 4 -161 0 -86 -2 -159 -4 -161 -3 -2 -38 -2 -78 2 -40 3 -74 5 -76
4 -1 -1 -8 -70 -15 -152 l-13 -151 45 -6 c24 -3 59 -6 78 -6 32 0 34 -2 29
-27 -3 -16 -8 -48 -11 -73 -12 -87 -38 -215 -45 -223 -4 -5 -37 0 -73 9 -37
10 -69 15 -73 12 -11 -11 -75 -279 -69 -289 4 -5 12 -9 19 -9 7 0 36 -7 65
-16 52 -15 52 -16 46 -47 -7 -30 -93 -278 -100 -285 -2 -2 -33 11 -71 28 -37
17 -70 27 -74 23 -15 -19 -120 -265 -116 -272 3 -4 34 -20 70 -35 l65 -28 -36
-71 c-31 -62 -120 -224 -130 -236 -2 -3 -30 14 -63 37 -32 23 -63 42 -69 42
-13 0 -173 -238 -167 -249 3 -5 33 -26 66 -47 33 -22 60 -42 60 -46 0 -4 -45
-67 -100 -140 l-99 -133 22 -23 c31 -34 196 -172 205 -172 8 0 131 156 192
243 18 26 37 47 42 47 5 0 44 -25 87 -55 l78 -55 79 118 c43 64 82 122 86 128
5 7 -22 31 -72 64 -45 29 -83 57 -86 61 -2 4 24 59 59 121 36 62 79 141 96
175 l31 63 58 -26 c106 -48 133 -57 141 -48 11 12 123 265 119 269 -2 1 -41
19 -88 39 -47 21 -89 41 -94 46 -4 5 14 70 42 147 27 76 56 157 63 180 7 24
14 43 16 43 3 0 50 -11 105 -25 55 -14 101 -25 102 -23 5 7 76 291 74 294 -2
1 -47 14 -101 27 -54 14 -100 27 -102 29 -1 1 8 59 21 128 12 69 26 153 30
188 l6 63 92 -6 c50 -4 98 -9 107 -11 19 -5 24 22 34 176 4 52 9 102 11 112 4
14 -7 17 -73 23 -43 3 -92 8 -109 11 l-31 4 0 190 0 190 31 4 c17 3 66 8 109
12 78 6 78 6 73 32 -3 15 -7 68 -11 117 -9 142 -14 166 -33 161 -10 -2 -58 -7
-108 -11 l-92 -6 -6 63 c-4 35 -18 119 -30 188 -13 69 -22 127 -21 128 2 2 48
15 102 29 54 13 99 26 101 27 2 3 -69 287 -74 294 -1 2 -47 -9 -102 -23 -55
-14 -102 -25 -105 -25 -2 0 -9 19 -16 43 -7 23 -36 104 -63 180 -28 77 -46
142 -42 147 5 5 47 25 94 46 47 20 86 38 88 39 4 4 -108 257 -119 269 -8 9
-35 0 -141 -48 l-58 -26 -31 63 c-17 34 -60 113 -96 175 -35 62 -61 117 -59
121 3 4 41 32 86 61 50 33 77 57 72 64 -4 6 -43 64 -86 128 l-79 118 -78 -55
c-43 -30 -82 -55 -87 -55 -5 0 -24 21 -42 48 -61 86 -184 242 -192 242 -4 0
-47 -33 -95 -74z"/>
<path d="M5622 6193 c-21 -27 -71 -92 -111 -146 l-72 -97 -81 55 c-44 30 -84
52 -89 49 -20 -12 -169 -245 -164 -255 4 -5 42 -33 85 -62 l77 -52 -88 -160
c-48 -88 -92 -166 -96 -174 -7 -11 -27 -6 -103 28 -51 23 -97 38 -100 34 -11
-12 -120 -259 -120 -271 0 -5 43 -29 95 -53 74 -33 94 -46 89 -58 -4 -9 -33
-90 -65 -181 -31 -91 -61 -164 -66 -164 -4 1 -49 12 -100 25 -51 13 -95 21
-98 18 -9 -10 -79 -289 -73 -294 3 -3 48 -17 99 -31 52 -14 96 -28 98 -29 2
-2 -9 -73 -23 -157 -14 -84 -29 -168 -32 -186 -5 -30 -7 -32 -37 -28 -18 3
-66 8 -108 11 l-75 6 -12 -152 c-7 -84 -10 -154 -7 -157 4 -4 139 -20 188 -21
16 -1 17 -17 17 -191 0 -174 -1 -190 -17 -191 -49 -1 -184 -17 -188 -21 -3 -3
0 -73 7 -157 l12 -152 75 6 c42 3 90 8 108 11 34 5 34 6 48 -96 4 -25 15 -91
26 -148 10 -57 19 -109 19 -116 0 -8 -37 -23 -96 -39 -53 -14 -99 -28 -102
-31 -5 -6 64 -285 73 -295 3 -3 47 5 98 18 51 13 96 24 100 25 5 0 35 -73 66
-164 32 -91 61 -172 65 -181 6 -13 -12 -24 -84 -55 -51 -21 -94 -44 -96 -50
-5 -10 100 -259 115 -277 4 -4 50 11 101 34 76 34 96 39 103 28 4 -8 48 -86
96 -174 l88 -160 -77 -52 c-43 -29 -81 -57 -85 -62 -5 -10 144 -243 164 -255
5 -3 45 19 89 49 l80 55 103 -137 c57 -75 111 -141 120 -146 14 -9 35 5 110
70 149 128 143 110 72 201 -32 42 -78 102 -101 133 l-41 57 70 46 c45 30 67
51 63 59 -12 19 -156 231 -165 241 -4 4 -34 -10 -67 -33 -34 -23 -65 -41 -69
-41 -13 0 -169 287 -161 295 2 2 34 17 70 34 l67 30 -50 113 c-29 62 -56 125
-62 141 -14 33 -21 33 -89 2 -29 -14 -58 -25 -64 -25 -6 0 -16 15 -22 33 -6
17 -29 86 -51 151 -23 66 -41 120 -41 122 0 1 33 10 73 19 39 10 73 19 74 19
3 3 -74 297 -79 301 -2 2 -36 -4 -75 -14 l-72 -19 -11 52 c-21 100 -42 247
-36 261 4 11 22 15 63 15 32 0 63 4 70 8 9 6 10 37 2 137 -15 193 -6 177 -93
169 l-74 -7 -3 82 c-2 44 -2 118 0 162 l3 82 74 -7 c87 -8 78 -24 93 169 8
100 7 131 -2 137 -7 4 -40 8 -74 8 -59 0 -63 2 -63 23 0 26 25 182 40 255 l11
50 72 -19 c39 -10 73 -16 75 -14 5 4 82 298 79 301 -1 0 -35 9 -74 19 -40 9
-73 18 -73 19 0 2 18 56 41 122 22 65 45 134 51 152 6 17 16 32 22 32 6 0 35
-11 64 -25 68 -31 75 -31 89 3 6 15 33 78 62 140 l50 113 -67 30 c-36 17 -68
32 -70 34 -8 8 148 295 161 295 4 0 35 -18 69 -41 33 -23 63 -37 67 -33 9 10
153 222 165 241 4 8 -18 29 -63 59 l-70 46 41 57 c23 31 69 91 101 133 60 78
60 78 41 99 -33 37 -202 179 -212 179 -6 0 -28 -21 -50 -47z"/>
</g>
</svg>
